<svg xmlns="http://www.w3.org/2000/svg" viewBox="0 0 560 140" role="img" aria-label="Agrotek logo">
  <defs>
    <linearGradient id="g" x1="0" y1="0" x2="1" y2="1">
      <stop offset="0" stop-color="#2d5016"/>
      <stop offset="1" stop-color="#8bc34a"/>
    </linearGradient>
    <filter id="s" x="-20%" y="-20%" width="140%" height="140%">
      <feDropShadow dx="0" dy="6" stdDeviation="6" flood-color="rgba(0,0,0,0.18)"/>
    </filter>
  </defs>
  <g transform="translate(18 18)">
    <g filter="url(#s)">
      <path d="M52 8c22 6 38 24 38 46 0 25-20 46-46 46S-2 79-2 54C-2 33 13 15 35 8c-3 10 0 18 9 26 8 7 11 15 10 26 10-12 14-26 14-44z"
            fill="url(#g)"/>
      <path d="M29 76c20-8 34-23 42-45" fill="none" stroke="rgba(255,255,255,0.7)" stroke-width="6" stroke-linecap="round"/>
      <path d="M41 86c6-13 10-25 12-38" fill="none" stroke="rgba(255,255,255,0.5)" stroke-width="5" stroke-linecap="round"/>
    </g>
    <g transform="translate(110 12)">
      <text x="0" y="62" font-family="Poppins, system-ui, -apple-system, Segoe UI, Arial, sans-serif" font-size="64" font-weight="700" fill="#2d5016">
        Agrotek
      </text>
      <text x="2" y="94" font-family="Roboto, system-ui, -apple-system, Segoe UI, Arial, sans-serif" font-size="18" font-weight="500" fill="#666">
        Smart Agriculture Technologies
      </text>
    </g>
  </g>
</svg>

